<?xml version="1.0" standalone="no"?>
<!DOCTYPE svg PUBLIC "-//W3C//DTD SVG 20010904//EN"
 "http://www.w3.org/TR/2001/REC-SVG-20010904/DTD/svg10.dtd">
<svg version="1.0" xmlns="http://www.w3.org/2000/svg"
 width="300.000000pt" height="300.000000pt" viewBox="0 0 300.000000 300.000000"
 preserveAspectRatio="xMidYMid meet">
<metadata>
Created by potrace 1.11, written by Peter Selinger 2001-2013
</metadata>
<g transform="translate(0.000000,300.000000) scale(0.100000,-0.100000)"
fill="#000000" stroke="none">
<path d="M0 1500 l0 -1500 1500 0 1500 0 0 1500 0 1500 -1500 0 -1500 0 0
-1500z m1067 673 c85 -28 141 -63 192 -118 60 -66 83 -122 89 -225 8 -153 -30
-264 -126 -359 -32 -32 -77 -68 -101 -80 -23 -12 -41 -26 -39 -30 8 -19 442
-560 447 -556 4 2 112 316 241 699 l235 696 200 0 200 0 243 -717 c133 -395
242 -721 242 -725 0 -5 -83 -8 -184 -8 l-185 0 -36 118 c-20 64 -40 128 -44
142 l-8 25 -231 3 -231 2 -36 -117 c-20 -65 -40 -129 -44 -143 l-8 -25 -384
-2 -384 -2 -200 264 -200 265 -67 0 -68 0 0 -265 0 -265 -180 0 -180 0 0 726
0 726 393 -4 c363 -4 397 -6 454 -25z"/>
<path d="M580 1740 l0 -192 123 4 c146 5 202 25 245 90 22 34 26 51 26 107 0
83 -20 124 -77 153 -36 19 -62 23 -179 26 l-138 4 0 -192z"/>
<path d="M2124 1540 l-71 -230 148 0 148 0 -13 43 c-92 298 -130 417 -135 417
-3 0 -38 -104 -77 -230z"/>
</g>
</svg>
